<?xml version="1.0" encoding="UTF-8" standalone="no"?>
<!-- Created with Inkscape (http://www.inkscape.org/) -->

<svg
   version="1.1"
   id="svg1099"
   width="140"
   height="100"
   viewBox="0 0 140 100"
   sodipodi:docname="Logo2.svg"
   inkscape:version="1.2.2 (732a01da63, 2022-12-09)"
   xmlns:inkscape="http://www.inkscape.org/namespaces/inkscape"
   xmlns:sodipodi="http://sodipodi.sourceforge.net/DTD/sodipodi-0.dtd"
   xmlns="http://www.w3.org/2000/svg"
   xmlns:svg="http://www.w3.org/2000/svg">
  <defs
     id="defs1103" />
  <sodipodi:namedview
     id="namedview1101"
     pagecolor="#ffffff"
     bordercolor="#000000"
     borderopacity="0.25"
     inkscape:showpageshadow="2"
     inkscape:pageopacity="0.0"
     inkscape:pagecheckerboard="0"
     inkscape:deskcolor="#d1d1d1"
     showgrid="false"
     inkscape:zoom="4.6754345"
     inkscape:cx="11.870554"
     inkscape:cy="70.474733"
     inkscape:window-width="1920"
     inkscape:window-height="991"
     inkscape:window-x="-9"
     inkscape:window-y="-9"
     inkscape:window-maximized="1"
     inkscape:current-layer="g1105" />
  <g
     inkscape:groupmode="layer"
     inkscape:label="Image"
     id="g1105">
    <path
       style="fill:#5a5386;fill-opacity:1;stroke-width:0.993624"
       d="m 69.67552,100 31.14245,-32.1483 h 37.14438 L 70.110683,0 19.105828,50.208725 Z"
       id="path6052"
       sodipodi:nodetypes="cccccc" />
    <path
       style="fill:#bdb8c0;fill-opacity:1;stroke-width:0.31796"
       d="M 49.010247,70.717129 28.662678,50.367698 49.169234,29.859294 69.67579,9.3508907 89.94665,29.619896 c 11.14897,11.147953 20.27086,20.376737 20.27086,20.508407 0,0.13167 -5.68643,0.239401 -12.636515,0.239401 H 84.944477 l -7.712855,-7.708039 -7.71286,-7.70804 -7.472109,7.467034 c -4.109658,4.106867 -7.472106,7.612374 -7.472106,7.790011 0,0.177641 3.433966,3.754711 7.631035,7.949049 l 7.631036,7.626065 v -7.627922 -7.627926 l 10.09398,10.093978 10.093977,10.09398 -10.171604,10.17533 c -5.594385,5.596434 -10.244407,10.175334 -10.333382,10.175334 -0.08897,0 -9.31818,-9.157245 -20.509342,-20.349429 z M 93.365643,60.383438 v -3.020619 h 13.036347 13.03635 v 3.020619 3.020618 H 106.40199 93.365643 Z"
       id="path1526" />
  </g>
</svg>
