<?xml version="1.0" encoding="UTF-8" standalone="no"?>
<!-- Created with Inkscape (http://www.inkscape.org/) -->

<svg
   width="150mm"
   height="250mm"
   viewBox="0 0 210 297"
   version="1.1"
   id="svg5"
   xml:space="preserve"
   inkscape:version="1.2.2 (732a01da63, 2022-12-09)"
   sodipodi:docname="pcFond.svg"
   xmlns:inkscape="http://www.inkscape.org/namespaces/inkscape"
   xmlns:sodipodi="http://sodipodi.sourceforge.net/DTD/sodipodi-0.dtd"
   xmlns:xlink="http://www.w3.org/1999/xlink"
   xmlns="http://www.w3.org/2000/svg"
   xmlns:svg="http://www.w3.org/2000/svg"><sodipodi:namedview
     id="namedview7"
     pagecolor="#ffffff"
     bordercolor="#000000"
     borderopacity="0.25"
     inkscape:showpageshadow="2"
     inkscape:pageopacity="0.0"
     inkscape:pagecheckerboard="0"
     inkscape:deskcolor="#d1d1d1"
     inkscape:document-units="mm"
     showgrid="false"
     inkscape:zoom="0.71624579"
     inkscape:cx="240.83911"
     inkscape:cy="563.3541"
     inkscape:window-width="1920"
     inkscape:window-height="991"
     inkscape:window-x="-9"
     inkscape:window-y="-9"
     inkscape:window-maximized="1"
     inkscape:current-layer="layer1" /><defs
     id="defs2" /><g
     inkscape:label="Calque 1"
     inkscape:groupmode="layer"
     id="layer1"><path
       style="fill:#426F6A;stroke-width:0.264583;fill-opacity:1"
       d="m 37.938325,187.80739 -1.5875,-0.34777 -1.5875,-0.64579 -1.5875,-0.64579 -1.182663,-0.74677 -1.182664,-0.74677 -1.437834,-1.34901 -1.437835,-1.34901 -1.241834,-1.89049 -1.241834,-1.89049 -0.767876,-2.34284 -0.767876,-2.34285 V 107.49627 41.48273 l 0.614727,-1.984375 0.614727,-1.984375 1.088559,-1.852084 1.088559,-1.852083 1.339422,-1.429873 1.339422,-1.429873 1.949841,-1.280581 1.94984,-1.280581 2.151202,-0.729129 2.151201,-0.729129 h 68.791671 68.79166 l 2.34285,0.767876 2.34285,0.767876 1.89048,1.249975 1.89049,1.249974 1.23152,1.289441 1.23152,1.289441 1.08641,1.699045 1.08642,1.699046 0.72477,2.137413 0.72478,2.137412 v 66.145834 66.14583 l -0.76365,2.32985 -0.76365,2.32986 -1.04754,1.63889 -1.04754,1.6389 -1.23152,1.28944 -1.23152,1.28944 -1.94984,1.28872 -1.94984,1.28872 -2.1512,0.72914 -2.1512,0.72912 -68.2625,0.0466 -68.262505,0.0466 z m 135.943605,-5.32562 1.90431,-0.42075 2.13714,-1.01992 2.13714,-1.01991 1.07933,-1.07933 1.07933,-1.07932 1.07519,-2.17637 1.07519,-2.17636 0.40469,-1.93553 0.4047,-1.93552 V 107.38901 45.139251 l -0.52726,-2.092844 -0.52726,-2.092844 -0.96948,-1.928636 -0.96948,-1.928636 -1.06248,-1.062472 -1.06247,-1.062472 -2.13714,-1.019911 -2.13714,-1.019912 -1.90431,-0.420751 -1.90431,-0.420751 H 107.12687 42.276119 l -1.904314,0.418769 -1.904313,0.41877 -2.176364,1.061118 -2.176364,1.061117 -1.040103,1.040103 -1.040102,1.040102 -1.062995,2.176365 -1.062994,2.176364 -0.424334,1.984375 -0.424334,1.984375 0.07359,62.83854 0.07359,62.83854 0.621162,1.85208 0.621162,1.85209 0.81131,1.53363 0.81131,1.53364 1.047892,1.04789 1.047892,1.04789 1.944231,0.96089 1.94423,0.96089 1.925406,0.473 1.925405,0.473 65.035268,0.0195 65.03528,0.0195 1.90431,-0.42075 z m -130.942697,-11.1959 -1.084508,-0.49252 -0.635283,-0.89073 -0.635283,-0.89073 v -16.16017 -16.16018 l 0.712669,-0.93436 0.712669,-0.93436 0.914817,-0.43411 0.914817,-0.43411 h 16.12413 16.124126 l 1.138224,0.60191 1.138225,0.60191 0.490889,0.91532 0.490892,0.91532 v 15.88325 15.88326 l -0.490892,0.91532 -0.490889,0.91531 -1.138225,0.60191 -1.138224,0.60191 -16.031821,-0.006 -16.031824,-0.006 -1.084509,-0.49253 z m 33.641753,-1.23978 0.887216,-0.42101 0.41904,-1.10035 0.419036,-1.10034 -0.07564,-15.08125 -0.07564,-15.08125 -0.394422,-0.59538 -0.394423,-0.59539 -0.836189,-0.3968 -0.836189,-0.3968 H 59.911762 44.129755 l -0.776132,0.40135 -0.776132,0.40136 -0.401354,0.77613 -0.401353,0.77613 v 15.10289 15.10289 l 0.362638,0.86791 0.362637,0.86791 0.894133,0.44048 0.894133,0.44048 15.702722,0.006 15.702722,0.006 0.887217,-0.42102 z m -34.447282,-47.75492 -1.360872,-0.52335 -1.243292,-1.09439 -1.243293,-1.09439 -0.643929,-1.02005 -0.643928,-1.02005 -0.394825,-1.54115 -0.394824,-1.54115 0.07104,-33.973412 0.07104,-33.973415 0.697221,-1.486961 0.697221,-1.486961 0.984898,-1.090164 0.984897,-1.090164 1.751901,-0.862458 1.751902,-0.862459 h 36.126752 36.126757 l 1.7519,0.862459 1.7519,0.862458 0.9849,1.090164 0.9849,1.090164 0.69722,1.486961 0.69722,1.486961 v 34.528124 34.528123 l -0.50569,1.45521 -0.50569,1.45521 -1.61098,1.61065 -1.61097,1.61066 -1.53128,0.57215 -1.53128,0.57216 -35.774977,-0.0138 -35.774972,-0.0138 z m 72.568746,-2.51728 1.24408,-0.42237 0.97831,-0.64742 0.97832,-0.64742 0.67436,-1.24531 0.67436,-1.24531 0.2875,-1.56995 0.28749,-1.56994 V 81.157748 49.88933 l -0.26491,-1.396839 -0.2649,-1.39684 -0.59221,-1.185781 -0.59221,-1.185782 -0.92044,-0.758705 -0.92044,-0.758706 -1.3313,-0.465098 -1.3313,-0.465099 H 79.345617 45.082075 l -1.431326,0.498322 -1.431327,0.498323 -1.082215,1.091674 -1.082215,1.091674 -0.529167,1.32042 -0.529166,1.32042 -0.077,32.014583 -0.07699,32.014584 0.29459,1.71918 0.29459,1.71919 0.678114,1.24592 0.678113,1.24591 0.980219,0.64868 0.98022,0.64868 1.16678,0.40849 1.16678,0.40848 34.188149,0.0126 34.188156,0.0126 1.24407,-0.42237 z M 54.454432,74.443706 53.681034,73.67031 V 65.033604 56.3969 l 0.272425,-0.509034 0.272428,-0.509035 0.772766,-0.399613 0.772769,-0.399614 h 8.764741 8.764743 l 0.773396,0.773399 0.773398,0.773395 v 8.771956 8.771956 l -0.773398,0.773396 -0.773396,0.773398 h -9.036539 -9.036539 z m 19.173351,-0.425733 0.405382,-0.405379 0.157035,-0.851392 0.157036,-0.85139 -0.0805,-7.762761 -0.0805,-7.762761 -0.624623,-0.505468 -0.624626,-0.505468 H 64.29392 55.650853 l -0.588036,0.411877 -0.588039,0.41188 v 8.697349 8.697346 l 0.415774,0.415774 0.415774,0.415774 h 8.958035 8.958035 z"
       id="path3040" /></g></svg>
